<?xml version="1.0" encoding="UTF-8"?>
<svg xmlns="http://www.w3.org/2000/svg" viewBox="0 0 520 140" fill="none" aria-hidden="true">
  <defs>
    <linearGradient id="ground" x1="0%" y1="50%" x2="100%" y2="50%">
      <stop offset="0%" stop-color="#9b8cff" stop-opacity="0"/>
      <stop offset="35%" stop-color="#ffb7c5" stop-opacity="0.22"/>
      <stop offset="50%" stop-color="#ffd6e8" stop-opacity="0.35"/>
      <stop offset="65%" stop-color="#ffb7c5" stop-opacity="0.22"/>
      <stop offset="100%" stop-color="#9b8cff" stop-opacity="0"/>
    </linearGradient>
    <radialGradient id="bloom" cx="50%" cy="50%" r="50%">
      <stop offset="0%" stop-color="#ffd6e8"/>
      <stop offset="65%" stop-color="#ffb7c5" stop-opacity="0.95"/>
      <stop offset="100%" stop-color="#f472b6" stop-opacity="0.55"/>
    </radialGradient>
    <linearGradient id="branch" x1="0%" y1="0%" x2="100%" y2="0%">
      <stop offset="0%" stop-color="#9b8cff" stop-opacity="0.35"/>
      <stop offset="50%" stop-color="#ffb7c5" stop-opacity="0.5"/>
      <stop offset="100%" stop-color="#9b8cff" stop-opacity="0.35"/>
    </linearGradient>
    <filter id="soft" x="-20%" y="-20%" width="140%" height="140%">
      <feGaussianBlur stdDeviation="3" result="b"/>
      <feMerge><feMergeNode in="b"/><feMergeNode in="SourceGraphic"/></feMerge>
    </filter>
  </defs>
  <ellipse cx="260" cy="118" rx="200" ry="28" fill="url(#ground)" filter="url(#soft)"/>
  <ellipse cx="260" cy="122" rx="140" ry="14" fill="#ffb7c5" opacity="0.12"/>
  <path d="M20 108 C100 95 180 88 260 92 C340 96 420 102 500 108" stroke="url(#branch)" stroke-width="2" stroke-linecap="round" fill="none" opacity="0.65"/>
  <path d="M80 100 C150 92 220 90 280 94" stroke="url(#branch)" stroke-width="1.2" stroke-linecap="round" fill="none" opacity="0.4"/>
  <path d="M320 98 C380 94 440 96 480 102" stroke="url(#branch)" stroke-width="1" stroke-linecap="round" fill="none" opacity="0.35"/>
  <g transform="translate(260 78)" opacity="0.92">
    <ellipse cx="0" cy="-10" rx="9" ry="14" fill="url(#bloom)" transform="rotate(0)"/>
    <ellipse cx="0" cy="-10" rx="9" ry="14" fill="url(#bloom)" transform="rotate(72)"/>
    <ellipse cx="0" cy="-10" rx="9" ry="14" fill="url(#bloom)" transform="rotate(144)"/>
    <ellipse cx="0" cy="-10" rx="9" ry="14" fill="url(#bloom)" transform="rotate(216)"/>
    <ellipse cx="0" cy="-10" rx="9" ry="14" fill="url(#bloom)" transform="rotate(288)"/>
    <circle r="4" fill="#f472b6" opacity="0.85"/>
  </g>
  <g transform="translate(175 88) scale(0.82)" opacity="0.88">
    <ellipse cx="0" cy="-8" rx="7" ry="11" fill="url(#bloom)" transform="rotate(12)"/>
    <ellipse cx="0" cy="-8" rx="7" ry="11" fill="url(#bloom)" transform="rotate(84)"/>
    <ellipse cx="0" cy="-8" rx="7" ry="11" fill="url(#bloom)" transform="rotate(156)"/>
    <ellipse cx="0" cy="-8" rx="7" ry="11" fill="url(#bloom)" transform="rotate(228)"/>
    <ellipse cx="0" cy="-8" rx="7" ry="11" fill="url(#bloom)" transform="rotate(300)"/>
    <circle r="3" fill="#9b8cff" opacity="0.45"/>
  </g>
  <g transform="translate(345 88) scale(0.82)" opacity="0.88">
    <ellipse cx="0" cy="-8" rx="7" ry="11" fill="url(#bloom)" transform="rotate(-8)"/>
    <ellipse cx="0" cy="-8" rx="7" ry="11" fill="url(#bloom)" transform="rotate(64)"/>
    <ellipse cx="0" cy="-8" rx="7" ry="11" fill="url(#bloom)" transform="rotate(136)"/>
    <ellipse cx="0" cy="-8" rx="7" ry="11" fill="url(#bloom)" transform="rotate(208)"/>
    <ellipse cx="0" cy="-8" rx="7" ry="11" fill="url(#bloom)" transform="rotate(280)"/>
    <circle r="3" fill="#f472b6" opacity="0.7"/>
  </g>
  <g transform="translate(115 96) scale(0.55)" opacity="0.75">
    <ellipse cx="0" cy="-8" rx="7" ry="11" fill="url(#bloom)" transform="rotate(0)"/>
    <ellipse cx="0" cy="-8" rx="7" ry="11" fill="url(#bloom)" transform="rotate(72)"/>
    <ellipse cx="0" cy="-8" rx="7" ry="11" fill="url(#bloom)" transform="rotate(144)"/>
    <ellipse cx="0" cy="-8" rx="7" ry="11" fill="url(#bloom)" transform="rotate(216)"/>
    <ellipse cx="0" cy="-8" rx="7" ry="11" fill="url(#bloom)" transform="rotate(288)"/>
  </g>
  <g transform="translate(405 96) scale(0.55)" opacity="0.75">
    <ellipse cx="0" cy="-8" rx="7" ry="11" fill="url(#bloom)" transform="rotate(20)"/>
    <ellipse cx="0" cy="-8" rx="7" ry="11" fill="url(#bloom)" transform="rotate(92)"/>
    <ellipse cx="0" cy="-8" rx="7" ry="11" fill="url(#bloom)" transform="rotate(164)"/>
    <ellipse cx="0" cy="-8" rx="7" ry="11" fill="url(#bloom)" transform="rotate(236)"/>
    <ellipse cx="0" cy="-8" rx="7" ry="11" fill="url(#bloom)" transform="rotate(308)"/>
  </g>
  <g transform="translate(220 102) scale(0.4)" opacity="0.6">
    <ellipse cx="0" cy="-8" rx="7" ry="11" fill="#ffd6e8" transform="rotate(0)"/>
    <ellipse cx="0" cy="-8" rx="7" ry="11" fill="#ffb7c5" transform="rotate(72)"/>
    <ellipse cx="0" cy="-8" rx="7" ry="11" fill="#ffd6e8" transform="rotate(144)"/>
    <ellipse cx="0" cy="-8" rx="7" ry="11" fill="#ffb7c5" transform="rotate(216)"/>
    <ellipse cx="0" cy="-8" rx="7" ry="11" fill="#ffd6e8" transform="rotate(288)"/>
  </g>
  <g transform="translate(300 100) scale(0.45)" opacity="0.65">
    <ellipse cx="0" cy="-8" rx="7" ry="11" fill="url(#bloom)" transform="rotate(30)"/>
    <ellipse cx="0" cy="-8" rx="7" ry="11" fill="url(#bloom)" transform="rotate(102)"/>
    <ellipse cx="0" cy="-8" rx="7" ry="11" fill="url(#bloom)" transform="rotate(174)"/>
    <ellipse cx="0" cy="-8" rx="7" ry="11" fill="url(#bloom)" transform="rotate(246)"/>
    <ellipse cx="0" cy="-8" rx="7" ry="11" fill="url(#bloom)" transform="rotate(318)"/>
  </g>
  <ellipse cx="90" cy="118" rx="4" ry="6" fill="#ffb7c5" opacity="0.4" transform="rotate(25 90 118)"/>
  <ellipse cx="430" cy="115" rx="3.5" ry="5.5" fill="#ffd6e8" opacity="0.35" transform="rotate(-18 430 115)"/>
  <ellipse cx="155" cy="122" rx="3" ry="5" fill="#f472b6" opacity="0.3" transform="rotate(55 155 122)"/>
  <ellipse cx="365" cy="120" rx="3.5" ry="5" fill="#ffb7c5" opacity="0.32" transform="rotate(-40 365 120)"/>
  <ellipse cx="48" cy="112" rx="2.5" ry="4" fill="#ffd6e8" opacity="0.28" transform="rotate(10 48 112)"/>
  <ellipse cx="472" cy="110" rx="2.5" ry="4" fill="#ffb7c5" opacity="0.25" transform="rotate(-5 472 110)"/>
</svg>
